<svg width="78" height="16" viewBox="0 0 78 16" fill="none" xmlns="http://www.w3.org/2000/svg">
<path d="M8.9 15L3.18 7.64L8.72 0.879999H12.6L6.36 8.22V6.94L12.8 15H8.9ZM0.36 15V0.879999H3.5V15H0.36ZM16.51 9.18V6.86H19.49C20.1167 6.86 20.5967 6.7 20.93 6.38C21.2767 6.06 21.45 5.62667 21.45 5.08C21.45 4.57333 21.2833 4.15333 20.95 3.82C20.6167 3.48667 20.1367 3.32 19.51 3.32H16.51V0.879999H19.87C20.8033 0.879999 21.6233 1.06 22.33 1.42C23.0367 1.76667 23.59 2.25333 23.99 2.88C24.39 3.50667 24.59 4.22667 24.59 5.04C24.59 5.86667 24.39 6.59333 23.99 7.22C23.59 7.83333 23.03 8.31333 22.31 8.66C21.59 9.00667 20.7433 9.18 19.77 9.18H16.51ZM14.11 15V0.879999H17.25V15H14.11ZM21.79 15L17.39 8.92L20.27 8.14L25.51 15H21.79ZM30.5398 9.74L25.0998 0.879999H28.7398L32.9198 8.04H30.5798L34.7598 0.879999H38.3198L32.8398 9.74H30.5398ZM30.1598 15V8.3H33.2998V15H30.1598ZM41.842 9.86V7.42H44.882C45.2687 7.42 45.622 7.34 45.942 7.18C46.262 7.02 46.5154 6.78667 46.702 6.48C46.8887 6.17333 46.982 5.8 46.982 5.36C46.982 4.93333 46.8887 4.56667 46.702 4.26C46.5154 3.95333 46.262 3.72 45.942 3.56C45.622 3.4 45.2687 3.32 44.882 3.32H41.842V0.879999H45.342C46.2354 0.879999 47.042 1.06 47.762 1.42C48.482 1.78 49.0487 2.3 49.462 2.98C49.8887 3.64667 50.102 4.44 50.102 5.36C50.102 6.28 49.8887 7.08 49.462 7.76C49.0487 8.42667 48.482 8.94667 47.762 9.32C47.042 9.68 46.2354 9.86 45.342 9.86H41.842ZM39.442 15V0.879999H42.582V15H39.442ZM55.2067 15V1.08H58.3467V15H55.2067ZM50.7867 3.62V0.879999H62.7667V3.62H50.7867ZM70.518 15.24C69.4513 15.24 68.4646 15.0533 67.558 14.68C66.6646 14.3067 65.878 13.7867 65.198 13.12C64.518 12.4533 63.9913 11.68 63.618 10.8C63.2446 9.90667 63.058 8.94667 63.058 7.92C63.058 6.88 63.2446 5.92 63.618 5.04C63.9913 4.16 64.5113 3.39333 65.178 2.74C65.8446 2.07333 66.6246 1.56 67.518 1.2C68.4246 0.826666 69.4113 0.639999 70.478 0.639999C71.5313 0.639999 72.5046 0.826666 73.398 1.2C74.3046 1.56 75.0913 2.07333 75.758 2.74C76.438 3.39333 76.9646 4.16667 77.338 5.06C77.7113 5.94 77.898 6.9 77.898 7.94C77.898 8.96667 77.7113 9.92667 77.338 10.82C76.9646 11.7 76.4446 12.4733 75.778 13.14C75.1113 13.7933 74.3246 14.3067 73.418 14.68C72.5246 15.0533 71.558 15.24 70.518 15.24ZM70.478 12.38C71.318 12.38 72.0513 12.1933 72.678 11.82C73.318 11.4467 73.8113 10.9267 74.158 10.26C74.5046 9.58 74.678 8.8 74.678 7.92C74.678 7.25333 74.578 6.65333 74.378 6.12C74.178 5.57333 73.8913 5.10667 73.518 4.72C73.1446 4.32 72.698 4.02 72.178 3.82C71.6713 3.60667 71.1046 3.5 70.478 3.5C69.638 3.5 68.898 3.68667 68.258 4.06C67.6313 4.42 67.1446 4.93333 66.798 5.6C66.4513 6.25333 66.278 7.02667 66.278 7.92C66.278 8.58667 66.378 9.19333 66.578 9.74C66.778 10.2867 67.058 10.76 67.418 11.16C67.7913 11.5467 68.238 11.8467 68.758 12.06C69.278 12.2733 69.8513 12.38 70.478 12.38Z" fill="white"/>
</svg>
